# xmcd
#
# Track frame offsets:
# 150
# 12461
# 25899
# 38049
# 50367
# 67385
# 80492
# 99155
# 113395
# 126422
# 140373
# 153306
#
# Disc length: 2202 seconds
#
#
# Revision: 0
# Processed by: cddbd v1.5PL3 Copyright (c) Steve Scherf et al.
# Submitted via: FreeRIP 2.52 
#
DISCID=9808980c
DTITLE=Banda del Sol - Corridos y Rancheras Vol. I
DYEAR=1900
DGENRE=Latin
TTITLE0=Banda del Sol - Abrigando su tumba
TTITLE1=Banda del Sol - El centenario
TTITLE2=Banda del Sol - Las tres mujeres
TTITLE3=Banda del Sol - Gerardo Gonzalez
TTITLE4=Banda del Sol - Los tres amarradores
TTITLE5=Banda del Sol - El fuereño
TTITLE6=Banda del Sol - Al avion de la muerte
TTITLE7=Banda del Sol - Quedate conmigo esta noche
TTITLE8=Banda del Sol - Los tequileros
TTITLE9=Banda del Sol - El hijo desobediente
TTITLE10=Banda del Sol - La mafia muere
TTITLE11=Banda del Sol - La pava
EXTD=
EXTT0=
EXTT1=
EXTT2=
EXTT3=
EXTT4=
EXTT5=
EXTT6=
EXTT7=
EXTT8=
EXTT9=
EXTT10=
EXTT11=
PLAYORDER=
